<svg width="125" height="20" viewBox="0 0 125 20" fill="none" xmlns="http://www.w3.org/2000/svg">
<g clip-path="url(#clip0_439_833)">
<path d="M3.78151 12.3875C3.78151 15.1368 5.08658 16.8103 7.22562 16.8103C9.36465 16.8103 10.6188 15.0488 10.6188 12.3624C10.6188 9.676 9.28826 8.04656 7.22562 8.04656C5.11204 8.04656 3.78151 9.72004 3.78151 12.3875ZM3.92157 7.11545C5.06111 5.71249 6.62083 5.0519 8.45429 5.0519C12.4013 5.0519 14.5977 8.29192 14.5977 12.3309C14.5977 16.8606 12.013 19.9434 8.23147 19.9434C6.36618 19.9434 4.781 19.2828 3.72422 17.7729L3.74968 19.5596H0V0H3.92157V7.11545Z" fill="white"/>
<path d="M20.5437 12.4694C20.5437 15.3823 21.8233 17.0558 24.0196 17.0558C26.216 17.0558 27.4638 15.3508 27.4638 12.438C27.4638 9.52511 26.1587 7.93341 23.9624 7.93341C21.8488 7.93341 20.5437 9.63835 20.5437 12.4631V12.4694ZM31.4172 12.4694C31.4172 17.0306 28.5014 20.0001 24.0196 20.0001C19.5379 20.0001 16.5967 17.0054 16.5967 12.4694C16.5967 7.93341 19.5697 4.97021 24.0769 4.97021C28.5014 4.97021 31.4172 7.96487 31.4172 12.4694Z" fill="white"/>
<path d="M42.4497 9.50629C42.2269 8.02154 41.3102 7.55599 39.725 7.55599C38.3372 7.55599 37.5032 8.07817 37.5032 8.95895C37.5032 10.1417 38.7255 10.3053 41.0046 10.7708C43.5893 11.293 46.5941 11.9536 46.5941 15.1684C46.5941 18.1379 44.124 19.975 40.0306 19.975C36.4464 19.975 33.3588 18.572 33.3015 14.9483H37.0576C37.1976 16.6532 38.3117 17.3075 40.1133 17.3075C41.724 17.3075 42.7235 16.6217 42.7235 15.5522C42.7235 14.3443 41.5585 14.1241 39.4958 13.6585C36.9366 13.0797 33.6007 12.696 33.6007 9.31755C33.6007 6.54309 35.8798 4.97656 39.8841 4.97656C43.1627 4.97656 46.002 6.21595 46.1103 9.51258H42.437L42.4497 9.50629Z" fill="white"/>
<path d="M52.4637 12.4694C52.4637 15.3823 53.7433 17.0558 55.9396 17.0558C58.1359 17.0558 59.3837 15.3508 59.3837 12.438C59.3837 9.52511 58.0786 7.93341 55.8823 7.93341C53.7687 7.93341 52.4637 9.63835 52.4637 12.4631V12.4694ZM63.3307 12.4694C63.3307 17.0306 60.4087 20.0001 55.9332 20.0001C51.4578 20.0001 48.5103 17.0054 48.5103 12.4694C48.5103 7.93341 51.4833 4.97021 55.9905 4.97021C60.415 4.97021 63.3307 7.96487 63.3307 12.4694Z" fill="white"/>
<path d="M75.4265 19.5595V11.2928C75.4265 9.53119 75.0955 8.21631 72.9819 8.21631C70.62 8.21631 69.8688 9.88979 69.8688 11.9533V19.5658H65.9473V5.38523H69.7033V7.3607C70.8429 5.85079 72.428 5.00146 74.4589 5.00146C77.4892 5.00146 79.4372 6.78819 79.4372 10.0848V19.5658H75.4329L75.4265 19.5595Z" fill="white"/>
<path d="M86.962 15.2754H82.5693V19.5598H86.962V15.2754Z" fill="white"/>
<path d="M91.4057 4.86963C92.0359 4.86963 92.5516 5.02062 92.9717 5.3226C93.3855 5.62458 93.6784 6.02093 93.8439 6.51795L92.4752 7.00237C92.4243 6.78218 92.3097 6.59344 92.1251 6.44245C91.9404 6.29146 91.6985 6.21596 91.3993 6.21596C91.2211 6.21596 91.0619 6.24742 90.9282 6.30404C90.7945 6.36066 90.6863 6.44245 90.5972 6.54311C90.508 6.64377 90.4444 6.75701 90.3998 6.88284C90.3552 7.00867 90.3298 7.14078 90.3298 7.26661V9.01559C90.3298 9.16029 90.3552 9.2924 90.3998 9.42452C90.4444 9.55664 90.508 9.66988 90.5972 9.77054C90.6863 9.8712 90.7945 9.95299 90.9346 10.0159C91.0683 10.0788 91.2274 10.1103 91.412 10.1103C91.5712 10.1103 91.7176 10.0851 91.8513 10.0222C91.985 9.96557 92.1059 9.88378 92.2078 9.78941C92.3097 9.68875 92.3924 9.57551 92.4561 9.44969C92.5134 9.31757 92.5452 9.17916 92.5452 9.03446V8.99042H91.2083V7.80137H93.9712V9.09108C93.9712 9.43081 93.9012 9.74538 93.7675 10.0348C93.6338 10.3242 93.4492 10.5758 93.22 10.7834C92.9908 10.991 92.7171 11.1609 92.4052 11.2742C92.0932 11.3937 91.7622 11.4503 91.412 11.4503C90.9855 11.4503 90.6163 11.3874 90.298 11.2679C89.9796 11.142 89.7186 10.9722 89.5086 10.7457C89.2985 10.5255 89.1457 10.255 89.0375 9.9467C88.9356 9.63842 88.8783 9.29869 88.8783 8.92122V7.39873C88.8783 7.06529 88.9292 6.74443 89.0375 6.44245C89.1393 6.14047 89.2985 5.86994 89.5086 5.63717C89.7186 5.40439 89.9796 5.22194 90.298 5.08353C90.6163 4.95142 90.9855 4.88221 91.412 4.88221L91.4057 4.86963Z" fill="white"/>
<path d="M100.261 6.87016C100.261 6.6311 100.185 6.45494 100.032 6.34799C99.879 6.24104 99.688 6.19071 99.4397 6.19071H98.1983V7.60625H99.3952C99.6562 7.60625 99.8663 7.54333 100.025 7.41751C100.185 7.29168 100.261 7.10923 100.261 6.87016ZM100.178 11.3873L99.1405 8.88967H98.1983V11.3873H96.7468V4.91357H99.6434C99.9299 4.91357 100.204 4.95761 100.458 5.04569C100.713 5.13377 100.936 5.25959 101.133 5.42317C101.324 5.58674 101.483 5.78806 101.591 6.03342C101.706 6.27878 101.763 6.54931 101.763 6.86387C101.763 7.25393 101.662 7.60625 101.458 7.92081C101.254 8.23537 100.955 8.47444 100.56 8.63802L101.808 11.3873H100.172H100.178Z" fill="white"/>
<path d="M106.818 6.20967C106.634 6.20967 106.481 6.24113 106.347 6.29775C106.213 6.35437 106.105 6.43616 106.016 6.53682C105.927 6.63748 105.863 6.75072 105.819 6.87655C105.774 7.00238 105.755 7.13449 105.755 7.26032V9.01559C105.755 9.16029 105.774 9.2924 105.819 9.42452C105.863 9.55664 105.927 9.66988 106.016 9.77054C106.105 9.8712 106.213 9.95299 106.347 10.0159C106.481 10.0788 106.64 10.1103 106.818 10.1103C107.168 10.1103 107.442 10.0033 107.633 9.79571C107.824 9.58809 107.92 9.33015 107.92 9.02188V7.26661C107.92 6.9835 107.824 6.73814 107.633 6.53053C107.442 6.32292 107.168 6.22226 106.818 6.22226V6.20967ZM106.831 4.86963C107.226 4.86963 107.582 4.93254 107.9 5.05837C108.219 5.18419 108.486 5.36035 108.709 5.58054C108.932 5.80074 109.104 6.07127 109.225 6.37954C109.346 6.68781 109.403 7.02125 109.403 7.38614V8.90864C109.403 9.2924 109.339 9.63842 109.218 9.95299C109.097 10.2676 108.925 10.5318 108.703 10.752C108.48 10.9722 108.212 11.142 107.894 11.2553C107.576 11.3748 107.226 11.4314 106.837 11.4314C106.411 11.4314 106.042 11.3622 105.723 11.2301C105.405 11.0917 105.144 10.9093 104.934 10.6765C104.724 10.4437 104.571 10.1732 104.463 9.8712C104.361 9.56293 104.31 9.24207 104.31 8.90864V7.38614C104.31 7.05271 104.361 6.73185 104.463 6.42987C104.565 6.12789 104.724 5.85736 104.934 5.62458C105.144 5.39181 105.405 5.20936 105.723 5.07095C106.042 4.93883 106.411 4.86963 106.837 4.86963H106.831Z" fill="white"/>
<path d="M116.915 10.0724C116.781 10.3555 116.597 10.5946 116.367 10.7959C116.138 10.9972 115.871 11.1545 115.559 11.2678C115.247 11.381 114.916 11.4376 114.566 11.4376C114.216 11.4376 113.885 11.381 113.573 11.2678C113.261 11.1545 112.993 10.991 112.758 10.7833C112.529 10.5757 112.344 10.3241 112.21 10.0284C112.077 9.73899 112.013 9.41184 112.013 9.04695V4.91357H113.458V8.92741C113.458 9.2986 113.566 9.58171 113.783 9.78303C113.999 9.98435 114.26 10.085 114.566 10.085C114.871 10.085 115.145 9.99693 115.355 9.81449C115.559 9.63204 115.661 9.3678 115.661 9.0092V4.91357H117.106V9.12244C117.106 9.46847 117.036 9.78303 116.902 10.0661L116.915 10.0724Z" fill="white"/>
<path d="M123.536 6.97082C123.536 6.71288 123.459 6.51785 123.3 6.39203C123.141 6.2662 122.918 6.20329 122.632 6.20329H121.454V7.74465H122.67C122.912 7.74465 123.109 7.67545 123.281 7.53704C123.453 7.39863 123.536 7.20989 123.536 6.97082ZM125 6.99599C125 7.28539 124.943 7.55591 124.822 7.80127C124.701 8.04663 124.542 8.26054 124.338 8.44299C124.134 8.62543 123.892 8.76384 123.619 8.8645C123.345 8.96516 123.046 9.01549 122.734 9.01549H121.454V11.3747H120.009V4.91357H122.708C123.052 4.91357 123.364 4.9639 123.65 5.05827C123.93 5.15264 124.172 5.29105 124.376 5.4735C124.58 5.65595 124.733 5.86985 124.841 6.12779C124.949 6.38574 125.006 6.67513 125.006 6.99599H125Z" fill="white"/>
</g>
<defs>
<clipPath id="clip0_439_833">
<rect width="125" height="20" fill="white"/>
</clipPath>
</defs>
</svg>
